<svg xmlns="http://www.w3.org/2000/svg" width="26.005" height="33.651" viewBox="0 0 26.005 33.651">
  <g id="그룹_1889" data-name="그룹 1889" transform="translate(771 96)">
    <path id="패스_2537" data-name="패스 2537" d="M62.873,185.81l-4.639-5.418a1.825,1.825,0,0,0-1.386-.638H43.77a1.825,1.825,0,0,0-1.386.638l-4.639,5.418a1.825,1.825,0,0,0,.005,2.38l11.178,12.935a1.825,1.825,0,0,0,2.762,0l11.178-12.935A1.824,1.824,0,0,0,62.873,185.81Zm-16.557,5.112a.205.205,0,0,1-.391,0c-.869-2.662-1.727-3.52-4.39-4.389a.205.205,0,0,1,0-.391c2.662-.869,3.522-1.727,4.39-4.389a.205.205,0,0,1,.391,0c.869,2.662,1.727,3.52,4.39,4.389a.205.205,0,0,1,0,.391C48.043,187.4,47.185,188.26,46.316,190.922Zm8.512.653A2.687,2.687,0,0,0,52.7,193.7a.1.1,0,0,1-.19,0,2.688,2.688,0,0,0-2.129-2.13.1.1,0,0,1,0-.19,2.687,2.687,0,0,0,2.129-2.13.1.1,0,0,1,.19,0,2.688,2.688,0,0,0,2.129,2.13A.1.1,0,0,1,54.828,191.575Z" transform="translate(-808.306 -275.754)" fill="#cfcfd5"/>
    <path id="패스_2540" data-name="패스 2540" d="M1-8.34H3.924a3.586,3.586,0,0,1,1.206.186A2.429,2.429,0,0,1,6-7.638a2.1,2.1,0,0,1,.522.786,2.737,2.737,0,0,1,.174.984v.252a2.58,2.58,0,0,1-.186.984,2.312,2.312,0,0,1-.54.8A2.475,2.475,0,0,1,5.1-3.3a3.357,3.357,0,0,1-1.176.192H1.836V.312H1Zm.84.756v3.72H3.72a2.293,2.293,0,0,0,1.62-.48,1.705,1.705,0,0,0,.5-1.3v-.216A1.677,1.677,0,0,0,5.358-7.1a2.069,2.069,0,0,0-1.506-.48Zm9.636,2.268a2.124,2.124,0,0,0-.78-.132,1.638,1.638,0,0,0-.72.156,1.618,1.618,0,0,0-.552.432,1.924,1.924,0,0,0-.348.66,2.8,2.8,0,0,0-.12.84V.312H8.136V-6.156h.8v1.14a3.026,3.026,0,0,1,.27-.456,1.91,1.91,0,0,1,.4-.408,1.978,1.978,0,0,1,.528-.288,1.922,1.922,0,0,1,.666-.108,3.743,3.743,0,0,1,.5.03,2.136,2.136,0,0,1,.426.1Zm1.392-.84h.816V.312h-.816ZM12.828-8.3h.888v.912h-.888Zm5.184,2.028a4.014,4.014,0,0,1,1.2.162,2.973,2.973,0,0,1,.924.474L19.764-5a2.932,2.932,0,0,0-.876-.426,3.33,3.33,0,0,0-.876-.114,1.7,1.7,0,0,0-1.356.57,2.357,2.357,0,0,0-.492,1.59v.828a2.42,2.42,0,0,0,.5,1.644,1.725,1.725,0,0,0,1.368.576,2.857,2.857,0,0,0,1.11-.186,3.661,3.661,0,0,0,.786-.45l.384.648q-.18.132-.4.264a2.81,2.81,0,0,1-.492.234A3.9,3.9,0,0,1,18.8.342a4.2,4.2,0,0,1-.78.066,2.548,2.548,0,0,1-1.98-.774,3.129,3.129,0,0,1-.708-2.19v-.8a3.667,3.667,0,0,1,.2-1.254,2.579,2.579,0,0,1,.546-.912,2.292,2.292,0,0,1,.84-.558A2.981,2.981,0,0,1,18.012-6.276ZM25.68-3.348v-.108a2.315,2.315,0,0,0-.468-1.56,1.653,1.653,0,0,0-1.32-.54,1.643,1.643,0,0,0-1.338.57,2.318,2.318,0,0,0-.474,1.53v.108Zm.672,3.024a4.458,4.458,0,0,1-.96.5A3.786,3.786,0,0,1,24,.408a2.618,2.618,0,0,1-2.016-.774,3.1,3.1,0,0,1-.72-2.19v-.8a3.067,3.067,0,0,1,.7-2.148,2.479,2.479,0,0,1,1.926-.768,2.4,2.4,0,0,1,1.938.786A3.227,3.227,0,0,1,26.5-3.336v.672H22.08v.108A2.425,2.425,0,0,0,22.6-.894a1.8,1.8,0,0,0,1.416.582A3.123,3.123,0,0,0,25.152-.5a3.756,3.756,0,0,0,.84-.444Z" transform="translate(-771.996 -62.757)" fill="#cfcfd5"/>
  </g>
</svg>
