<svg xmlns="http://www.w3.org/2000/svg" width="44.364" height="36.231" viewBox="0 0 44.364 36.231">
  <g id="그룹_1890" data-name="그룹 1890" transform="translate(834 96)">
    <g id="user2" transform="translate(523.6 -81.297)">
      <path id="패스_66" d="M-1335.4-2.3c-6.6,0-10.2,3.1-10.2,8.8a.788.788,0,0,0,.231.569.789.789,0,0,0,.569.231h18.8a.789.789,0,0,0,.569-.231.789.789,0,0,0,.231-.569h0C-1325.2.8-1328.8-2.3-1335.4-2.3Z" fill="#cfcfd5"/>
      <path id="패스_67" d="M-1335.4-3.5a5.553,5.553,0,0,0,5.3-5.7,5.339,5.339,0,0,0-5.1-5.5,5.339,5.339,0,0,0-5.5,5.1v.4a5.553,5.553,0,0,0,5.3,5.7Z" fill="#cfcfd5"/>
    </g>
    <path id="패스_2539" data-name="패스 2539" d="M2.256-6.024q-.072-.156-.132-.27a2.478,2.478,0,0,1-.108-.234q-.048-.12-.1-.258t-.1-.33V.312H1V-8.34H2.028L4.956-2,7.9-8.34h1V.312H8.064V-7.116a3.133,3.133,0,0,1-.078.33q-.042.138-.09.258a2.479,2.479,0,0,1-.108.234q-.06.114-.132.27L5.34-1.128H4.548Zm8.676-.132,2,5.556L14.9-6.156h.84l-3.36,9.144-.7-.252L12.516.42,10.092-6.156ZM19.944-8.34h2.928a3.586,3.586,0,0,1,1.206.186,2.429,2.429,0,0,1,.87.516,2.1,2.1,0,0,1,.522.786,2.737,2.737,0,0,1,.174.984v.252a2.58,2.58,0,0,1-.186.984,2.312,2.312,0,0,1-.54.8,2.475,2.475,0,0,1-.87.534,3.357,3.357,0,0,1-1.176.192H20.784V.312h-.84Zm.84.756v3.72h1.884a2.293,2.293,0,0,0,1.62-.48,1.705,1.705,0,0,0,.5-1.3v-.216A1.677,1.677,0,0,0,24.306-7.1a2.069,2.069,0,0,0-1.506-.48ZM28.836.408a2.229,2.229,0,0,1-1.5-.492A1.689,1.689,0,0,1,26.76-1.44V-1.7a1.608,1.608,0,0,1,.576-1.284,2.562,2.562,0,0,1,1.7-.492h1.824v-.6a1.443,1.443,0,0,0-.39-1.086,1.584,1.584,0,0,0-1.146-.378,2.765,2.765,0,0,0-1.008.186,4.391,4.391,0,0,0-.9.474l-.4-.624a5.418,5.418,0,0,1,1.014-.54,3.426,3.426,0,0,1,1.3-.228,2.512,2.512,0,0,1,1.71.54,1.916,1.916,0,0,1,.618,1.524V.312h-.792V-.48h-.012a1.425,1.425,0,0,1-.282.318,2.26,2.26,0,0,1-.438.294A2.893,2.893,0,0,1,28.836.408Zm2.028-3.2H29.052a1.668,1.668,0,0,0-1.128.312,1.044,1.044,0,0,0-.348.816v.192a1.109,1.109,0,0,0,.12.534,1.082,1.082,0,0,0,.318.366,1.336,1.336,0,0,0,.444.21,1.914,1.914,0,0,0,.5.066,2.361,2.361,0,0,0,.7-.1,2.536,2.536,0,0,0,.6-.276,1.547,1.547,0,0,0,.438-.414,1.044,1.044,0,0,0,.174-.618ZM37.68-.66h-.012a1.639,1.639,0,0,1-.81.72,2.77,2.77,0,0,1-1.1.228A2.771,2.771,0,0,1,34.728.1a2.346,2.346,0,0,1-.816-.54,2.431,2.431,0,0,1-.54-.87,3.357,3.357,0,0,1-.192-1.176V-3.5a3.357,3.357,0,0,1,.192-1.176,2.475,2.475,0,0,1,.534-.87,2.275,2.275,0,0,1,.816-.54,2.784,2.784,0,0,1,1.026-.186A2.412,2.412,0,0,1,36.954-6a2.212,2.212,0,0,1,.738.636v-.792h.8V.2a2.8,2.8,0,0,1-.714,2.082,2.628,2.628,0,0,1-1.926.7,3.806,3.806,0,0,1-1.218-.18,3.241,3.241,0,0,1-.942-.492l.372-.636a3.713,3.713,0,0,0,.432.258,2.807,2.807,0,0,0,.414.168,2.239,2.239,0,0,0,.438.09,4.841,4.841,0,0,0,.5.024,1.792,1.792,0,0,0,1.362-.486A2.121,2.121,0,0,0,37.68.228ZM34-2.6A2.372,2.372,0,0,0,34.488-1,1.65,1.65,0,0,0,35.8-.432a2.571,2.571,0,0,0,.738-.1,1.654,1.654,0,0,0,.594-.312,1.52,1.52,0,0,0,.4-.528,1.742,1.742,0,0,0,.15-.75V-3.948a1.285,1.285,0,0,0-.138-.57,1.759,1.759,0,0,0-.39-.516,1.99,1.99,0,0,0-.6-.378,1.958,1.958,0,0,0-.756-.144,1.638,1.638,0,0,0-1.314.57A2.4,2.4,0,0,0,34-3.384Zm10.548-.744v-.108a2.315,2.315,0,0,0-.468-1.56,1.653,1.653,0,0,0-1.32-.54,1.643,1.643,0,0,0-1.338.57,2.318,2.318,0,0,0-.474,1.53v.108Zm.672,3.024a4.458,4.458,0,0,1-.96.5,3.786,3.786,0,0,1-1.392.228,2.618,2.618,0,0,1-2.016-.774,3.1,3.1,0,0,1-.72-2.19v-.8a3.067,3.067,0,0,1,.7-2.148,2.479,2.479,0,0,1,1.926-.768,2.4,2.4,0,0,1,1.938.786,3.227,3.227,0,0,1,.666,2.154v.672H40.944v.108A2.425,2.425,0,0,0,41.46-.894a1.8,1.8,0,0,0,1.416.582A3.123,3.123,0,0,0,44.016-.5a3.756,3.756,0,0,0,.84-.444Z" transform="translate(-834.996 -62.757)" fill="#cfcfd5"/>
  </g>
</svg>
