<svg width="63" height="30" viewBox="0 0 63 30" fill="none" xmlns="http://www.w3.org/2000/svg">
<mask id="mask0_2460_403" style="mask-type:alpha" maskUnits="userSpaceOnUse" x="0" y="0" width="63" height="30">
<rect x="0.187988" width="62" height="30" fill="#D9D9D9"/>
</mask>
<g mask="url(#mask0_2460_403)">
<g opacity="0.64">
<path d="M60.4812 18.9118C61.9073 19.3485 62.4849 20.6725 61.8765 22.0132C61.5638 22.7021 60.9515 22.9491 60.2724 22.9483C57.8648 22.9457 55.4512 23.106 53.0507 22.8736C49.4211 22.5222 46.3524 19.2577 46.0161 15.6351C45.6755 11.9668 47.8891 7.70532 52.8141 6.92427C56.4336 6.35028 60.8616 8.44497 61.8853 13.3309C62.3033 15.3255 61.8784 17.1198 60.6108 18.714C60.5717 18.7633 60.5413 18.8194 60.4812 18.9118ZM58.0603 14.8075C58.0612 13.737 57.6356 12.7101 56.877 11.9525C56.5014 11.5774 56.0554 11.2797 55.5644 11.0765C55.0734 10.8732 54.547 10.7684 54.0154 10.7679C53.4838 10.7675 52.9573 10.8714 52.4659 11.0738C51.9746 11.2763 51.5281 11.5732 51.1518 11.9476C50.392 12.7039 49.9646 13.7301 49.9637 14.8006C49.9649 15.8677 50.3887 16.8913 51.1429 17.6485C51.8972 18.4057 52.9208 18.8353 53.9912 18.8439C54.5257 18.8507 55.0562 18.7511 55.5517 18.5509C56.0471 18.3507 56.4975 18.054 56.8765 17.6781C57.2554 17.3022 57.5553 16.8547 57.7586 16.3617C57.9619 15.8688 58.0645 15.3404 58.0604 14.8075H58.0603ZM22.5294 6.68894C26.9319 6.69149 30.5927 10.2796 30.5354 14.6733C30.4765 19.19 27.1482 22.6177 22.5282 22.6222C17.6591 22.627 14.5132 18.8135 14.5355 14.566C14.5586 10.2155 18.1236 6.68629 22.5294 6.68894ZM22.5426 18.6943C24.8331 18.6915 26.6628 16.8695 26.6327 14.6212C26.6239 13.5466 26.1874 12.5194 25.4192 11.7655C24.6509 11.0117 23.6138 10.5929 22.5359 10.6013C20.2557 10.6017 18.4721 12.3632 18.4643 14.6227C18.4578 15.1587 18.5588 15.6906 18.7614 16.1871C18.964 16.6836 19.2641 17.1348 19.644 17.5141C20.024 17.8934 20.4761 18.1932 20.9738 18.3959C21.4716 18.5985 22.005 18.7 22.5426 18.6943ZM32.2712 14.8231C32.2712 12.8942 32.2713 10.9653 32.2715 9.03633C32.2732 7.22947 33.8531 6.28659 35.4724 7.12986C36.1676 7.49188 36.3779 8.12142 36.3782 8.85213C36.3792 12.0398 36.388 15.2274 36.3681 18.4149C36.3652 18.8645 36.4847 18.9841 36.9353 18.9801C39.3945 18.9577 41.8539 18.9665 44.3134 18.9707C45.3971 18.9726 46.003 19.3327 46.2589 20.1323C46.4474 20.7118 46.4384 21.3373 46.2333 21.9112C45.9879 22.6145 45.3682 22.9632 44.3611 22.9647C41.3933 22.9693 38.4256 22.9698 35.4579 22.9663C35.0971 22.9663 34.7364 22.972 34.3757 22.9652C33.0131 22.9397 32.2793 22.2117 32.2734 20.8551C32.2648 18.8444 32.2712 16.8337 32.2712 14.8231ZM0.379217 14.8898C0.379086 12.9274 0.379217 10.9648 0.379611 9.00218C0.381481 7.22093 1.98012 6.27785 3.55641 7.13457C4.30194 7.53967 4.47183 8.24232 4.46583 9.01513C4.44132 12.1211 4.52134 15.2277 4.41858 18.3334C4.39751 18.9684 4.41563 18.9694 5.04146 18.9694C7.45285 18.9696 9.86434 18.9828 12.2756 18.9652C14.2061 18.9512 14.6113 20.0873 14.4004 21.5792C14.2777 22.4461 13.6364 22.9499 12.6311 22.9562C9.20278 22.9776 5.77409 22.9841 2.34589 22.9552C1.07454 22.9444 0.39093 22.1986 0.382761 20.9246C0.369866 18.913 0.379217 16.9015 0.379217 14.8898ZM51.9445 2.94666C51.9417 2.68894 51.9909 2.43329 52.089 2.19486C52.1871 1.95642 52.3323 1.74004 52.5158 1.55855C52.6993 1.37705 52.9176 1.23413 53.1575 1.13825C53.3975 1.04236 53.6543 0.995471 53.9127 1.00034C54.426 1.00739 54.916 1.21467 55.2777 1.57773C55.6395 1.94079 55.8441 2.43072 55.8477 2.94244C55.8483 3.4585 55.6433 3.95366 55.2777 4.31899C54.9121 4.68431 54.4159 4.88988 53.8982 4.89047C53.3806 4.89105 52.8839 4.68661 52.5175 4.32211C52.1511 3.95761 51.9449 3.46292 51.9443 2.94685L51.9445 2.94666Z" fill="white"/>
</g>
</g>
</svg>
