<svg width="50" height="16" viewBox="0 0 50 16" fill="none" xmlns="http://www.w3.org/2000/svg">
<g opacity="0.64">
<path d="M11.2139 2.56152H6.06931C4.42929 2.56152 3.09521 3.86926 3.09521 5.47736V10.5214C3.09521 12.1293 4.42907 13.4385 6.06931 13.4385H11.2141C12.8542 13.4385 14.1882 12.1293 14.1882 10.5214V5.47736C14.1882 3.86926 12.8542 2.56152 11.2139 2.56152ZM12.2194 10.0092C12.2195 10.2162 12.1779 10.4212 12.0972 10.6125C12.0164 10.8038 11.898 10.9776 11.7487 11.124C11.5994 11.2704 11.4222 11.3865 11.2271 11.4657C11.0321 11.545 10.823 11.5857 10.6118 11.5857H6.6714C6.46023 11.5858 6.25112 11.545 6.05603 11.4658C5.86093 11.3866 5.68367 11.2704 5.53436 11.124C5.38505 10.9776 5.26663 10.8038 5.18585 10.6125C5.10507 10.4212 5.06353 10.2162 5.06358 10.0092V5.98936C5.06376 5.57131 5.23324 5.17044 5.53477 4.87485C5.8363 4.57926 6.24521 4.41316 6.67161 4.41304H10.6116C11.038 4.41321 11.4469 4.57937 11.7484 4.875C12.0499 5.17063 12.2193 5.57153 12.2194 5.98958V10.0092Z" fill="white"/>
<path d="M11.6767 0H5.6069C2.78012 0 0.481445 2.25365 0.481445 5.02336V10.9762C0.481445 13.7459 2.78012 15.9996 5.60669 15.9996H11.6767C14.5018 15.9996 16.8004 13.7459 16.8004 10.9762V5.02336C16.8007 2.25365 14.5018 0 11.6767 0ZM14.8321 10.5218C14.8321 12.4781 13.2088 14.0681 11.2135 14.0681H6.06864C4.07482 14.0681 2.45155 12.4781 2.45155 10.5218V5.47776C2.45155 3.52149 4.07482 1.93152 6.06864 1.93152H11.2135C13.2088 1.93152 14.8321 3.52149 14.8321 5.47776V10.5218ZM19.7356 10.522V5.47776C19.7356 3.52149 21.3589 1.93152 23.3527 1.93152H32.3576V0H22.8907C20.0598 0 17.7655 2.2496 17.7655 5.02357V10.976C17.7655 13.7502 20.0598 16 22.8907 16H32.3576V14.0685H23.3527C21.3589 14.0685 19.7356 12.4785 19.7356 10.5222" fill="white"/>
<path d="M20.3784 5.47779V10.5218C20.3784 12.1297 21.7123 13.4377 23.3525 13.4377H32.3575V11.5859H23.9561C23.5298 11.5859 23.1209 11.4199 22.8194 11.1243C22.5179 10.8287 22.3485 10.4279 22.3485 10.0098V5.99C22.3485 5.78297 22.39 5.57796 22.4708 5.38667C22.5516 5.19539 22.67 5.02158 22.8193 4.87518C22.9686 4.72877 23.1459 4.61264 23.341 4.53342C23.5361 4.4542 23.7452 4.41344 23.9563 4.41347H32.3575V2.56216H23.3525C21.7125 2.56216 20.3784 3.86968 20.3784 5.47779ZM44.174 2.56152H39.0292C37.3892 2.56152 36.0551 3.86926 36.0551 5.47736V15.999H38.0239V5.98936C38.0241 5.57135 38.1935 5.1705 38.495 4.87492C38.7965 4.57934 39.2053 4.41321 39.6317 4.41304H43.5717C43.9981 4.41321 44.407 4.57937 44.7085 4.875C45.01 5.17063 45.1794 5.57153 45.1795 5.98958V15.9992H47.1481V5.47736C47.1481 3.86926 45.8142 2.56152 44.174 2.56152Z" fill="white"/>
<path d="M49.7611 5.02406C49.7611 2.24987 47.4668 0.000488281 44.6374 0.000488281H38.5658C35.7364 0.000488281 33.4419 2.24987 33.4419 5.02385V16.0001H35.412V5.47825C35.412 3.52198 37.0337 1.93051 39.0291 1.93051H44.1739C46.1693 1.93051 47.7912 3.52198 47.7912 5.47825V16.0001H49.7611V5.02406Z" fill="white"/>
</g>
</svg>
