<svg width="92" height="14" viewBox="0 0 92 14" fill="none" xmlns="http://www.w3.org/2000/svg">
<g opacity="0.64">
<path d="M3.48484 3.78527C3.42087 3.52184 3.43602 3.24332 3.47137 3.09902C3.5606 2.68291 3.84511 2.21814 4.67171 2.21814C5.43938 2.21814 5.89056 2.69298 5.89056 3.40439V4.21312H9.1616V3.29533C9.15991 0.453024 6.58921 0 4.73568 0C2.40572 0 0.503366 0.770141 0.154882 2.90439C0.0589224 3.48996 0.043771 4.00507 0.181818 4.66615C0.749157 7.33731 5.40908 8.11081 6.08753 9.80042C6.21379 10.1142 6.17675 10.5186 6.11278 10.7652C6.00504 11.2048 5.70874 11.6478 4.83164 11.6478C4.01178 11.6478 3.52188 11.1729 3.52188 10.4581L3.51683 9.20142H0V10.1998C0 13.1209 2.30134 14.0001 4.76598 14.0001C7.23062 14.0001 9.08079 13.1947 9.39729 11.0085C9.55553 9.88096 9.43601 9.14773 9.38382 8.86921C8.82995 6.12757 3.85858 5.31381 3.48484 3.78527ZM46.1228 3.81715C46.0639 3.55876 46.0807 3.28526 46.111 3.14097C46.2053 2.72318 46.4864 2.2668 47.2996 2.2668C48.0571 2.2668 48.4999 2.7366 48.4999 3.44298V4.24165H51.7322V3.33057C51.7322 0.515105 49.2002 0.0721483 47.3652 0.0721483C45.0555 0.0721483 43.1699 0.830544 42.8248 2.94969C42.7339 3.52688 42.7103 4.03863 42.8568 4.69132C43.4191 7.33228 48.0319 8.09907 48.7019 9.77022C48.8198 10.0873 48.7861 10.49 48.7255 10.7283C48.6245 11.1629 48.3315 11.6008 47.4612 11.6008C46.6447 11.6008 46.1548 11.1326 46.1548 10.4279V9.17458H42.675V10.1712C42.675 13.0588 44.9443 13.9313 47.3905 13.9313C49.8366 13.9313 51.6665 13.1343 51.9763 10.9716C52.1245 9.85411 52.0134 9.1276 51.9527 8.85243C51.4107 6.14267 46.4932 5.32891 46.1211 3.81547L46.1228 3.81715ZM75.8938 10.9363L72.8062 0.416111H67.9409V13.3474H71.1598L70.9729 2.48996L74.2894 13.3474H78.9561V0.416111H75.717L75.8955 10.9363H75.8938ZM14.037 0.416111L11.6077 13.4833H15.1498L16.9798 1.3876L18.766 13.4833H22.2828L19.8636 0.416111H14.0353H14.037ZM33.84 0.416111L32.1851 10.631L30.5319 0.416111H25.1834L24.9006 13.4833H28.1767L28.2659 1.3876L30.5201 13.4833H33.845L36.1009 1.3876L36.1902 13.4833H39.4747L39.1817 0.416111H33.84ZM64.3063 0.416111H60.9898V10.0823C60.9948 10.2501 60.9898 10.4397 60.9611 10.579C60.8921 10.9028 60.616 11.5286 59.7019 11.5286C58.7877 11.5286 58.515 10.9045 58.451 10.579C58.4174 10.4397 58.414 10.2501 58.4174 10.0823V0.416111H55.1026V9.78197C55.0992 10.0236 55.1177 10.5169 55.1312 10.6461C55.3601 13.0874 57.2894 13.8793 59.7002 13.8793C62.111 13.8793 64.0436 13.0874 64.2776 10.6461C64.2962 10.5169 64.3197 10.0236 64.3063 9.78197V0.416111ZM87.0722 6.14771V8.05376H88.4156V9.94472C88.419 10.1142 88.4106 10.2954 88.382 10.4414C88.3281 10.7937 87.9931 11.3944 87.0385 11.3944C86.084 11.3944 85.7607 10.7937 85.7035 10.4414C85.6799 10.2954 85.6698 10.1125 85.6698 9.94472V3.97319C85.6698 3.76178 85.685 3.53023 85.7288 3.35573C85.7944 3.03694 86.0772 2.40942 87.0318 2.40942C88.0351 2.40942 88.2843 3.0705 88.3416 3.35573C88.3786 3.54366 88.382 3.85909 88.382 3.85909V4.58393H91.6833V4.15608C91.6833 4.15608 91.6984 3.70809 91.658 3.29198C91.4106 0.840612 89.3836 0.0654368 87.0604 0.0654368C84.7372 0.0654368 82.7473 0.847323 82.4577 3.29198C82.4308 3.51513 82.3921 3.91782 82.3921 4.15608V9.64941C82.3921 9.88935 82.4005 10.0739 82.4443 10.5118C82.6597 12.8961 84.7321 13.7401 87.0503 13.7401C89.3685 13.7401 91.4409 12.8944 91.6614 10.5118C91.7001 10.0739 91.7052 9.88935 91.7102 9.64941V6.14771H87.0722Z" fill="white"/>
</g>
</svg>
