<svg width="155" height="30" viewBox="0 0 155 30" fill="none" xmlns="http://www.w3.org/2000/svg">
<mask id="mask0_2460_404" style="mask-type:alpha" maskUnits="userSpaceOnUse" x="0" y="0" width="155" height="30">
<rect x="0.187988" width="154" height="30" fill="#D9D9D9"/>
</mask>
<g mask="url(#mask0_2460_404)">
<g opacity="0.64">
<path d="M8.50475 17.5028C9.12365 17.6839 9.32492 17.9314 9.32883 18.2783C9.33162 18.5785 9.10748 18.8496 8.55103 18.8547L0.180844 18.9363L0.210953 21.999L8.19446 21.9218C10.9474 21.8951 12.481 20.5039 12.4593 18.2861C12.4387 16.1765 11.2416 15.3001 9.06845 14.6535L4.3927 13.2663C3.71107 13.0662 3.40023 12.8106 3.43034 12.4341C3.46714 11.9757 3.83011 11.8193 4.49501 11.8126L12.2923 11.7371L12.2625 8.67246L4.55969 8.74771C1.78106 8.77502 0.201476 9.99676 0.119235 12.2268C0.0551147 13.9738 1.20844 15.3647 3.42588 16.0154L8.50475 17.5028ZM16.7985 1.09817L16.9365 15.3249C16.9561 17.3317 18.3288 18.9151 20.605 18.8934C22.8821 18.8711 24.2331 17.2614 24.2139 15.2544C24.1944 13.2479 22.8381 11.6343 20.5351 11.6566L18.4648 11.6766L18.435 8.61227L20.505 8.5922C24.5175 8.55319 27.2719 11.5259 27.3081 15.2251C27.3438 18.9252 24.6215 21.9511 20.6352 21.9895C16.5967 22.0286 13.8691 19.0559 13.8328 15.3561L13.6943 1.12855L16.7985 1.09817ZM35.0834 8.28621C31.1581 8.32439 28.3889 11.3693 28.4249 15.0916C28.4611 18.8137 31.3421 21.8034 35.2141 21.766C35.9445 21.7585 36.6353 21.6462 37.2749 21.4461L37.2442 18.2945C36.7577 18.4818 36.0354 18.6523 35.184 18.6607C32.9649 18.6819 31.5319 17.0154 31.5127 15.0612C31.4932 13.0542 32.8938 11.4127 35.1135 11.3916C37.3956 11.3693 38.765 12.9834 38.7845 14.991L38.8486 21.6239L41.9361 21.5938L41.872 14.9606C41.8358 11.2383 39.3245 8.24497 35.0831 8.28621" fill="white"/>
<path d="M105.717 21.6255H107.613V5.5801H105.717L105.717 21.6255ZM54.4782 11.6961C53.9926 10.5668 53.7757 9.73469 53.7757 7.7881V5.78884H51.6514V7.7881C51.6514 9.73469 51.435 10.5674 50.95 11.6958C50.4423 12.8707 49.49 14.052 48.3378 14.938L48.1855 15.0542L48.6503 15.5327C48.9068 15.7983 49.2218 16.124 49.2759 16.1781L49.3732 16.277L49.4889 16.2018C50.0776 15.8217 50.7955 15.1768 51.4105 14.4787C51.8276 14.0058 52.4013 13.182 52.7144 12.5301C53.0258 13.1809 53.5995 14.0058 54.0171 14.4787C54.6316 15.1762 55.35 15.8205 55.9388 16.2018L56.0556 16.2776L56.1529 16.1775C56.2385 16.09 57.0026 15.3002 57.1083 15.1907L57.241 15.0536L57.0899 14.938C55.9357 14.0509 54.9842 12.8696 54.4782 11.6958M99.5953 11.8895C99.1577 10.7934 98.9625 9.98579 98.9625 8.0927V7.61922H101.313V6.05219H94.5748V7.61922H96.9252V8.09298C96.9252 9.98578 96.73 10.794 96.2935 11.8895C95.7992 13.1223 94.9985 14.2387 94.0398 15.0338L93.8552 15.1863L94.4791 15.8805C94.6665 16.0889 94.8457 16.2896 94.8839 16.3305L95.0052 16.4629L95.1507 16.3617C95.7063 15.9744 96.2751 15.3184 96.8067 14.6674C97.1527 14.2438 97.6414 13.5053 97.9444 12.8623C98.2474 13.5069 98.7361 14.2452 99.0818 14.6671C99.6115 15.3164 100.179 15.971 100.738 16.3615L100.884 16.4635L101.006 16.3294C101.083 16.243 101.776 15.4719 101.872 15.3646L102.032 15.1857L101.849 15.0338C100.888 14.2379 100.087 13.1207 99.5953 11.8895Z" fill="white"/>
<path d="M59.0438 9.44068H55.9326V11.0325H59.0438V21.6252H61.0327V5.57983H59.0438V9.44068ZM102.728 9.44068H100.537V11.0074H102.728V21.6252H104.631V5.57983H102.728V9.44068ZM63.2024 14.1131H69.758V15.1208H65.3053V16.6702H73.6153C73.8723 16.6702 73.947 16.7112 73.947 16.9813V17.5988H65.2852V20.268C65.2852 21.1562 65.7856 21.6252 66.7338 21.6252H76.2208V20.0612H67.6574C67.3789 20.0612 67.3086 20.0317 67.3086 19.7642V19.0006H75.9676V16.3899C75.9676 15.5572 75.2266 15.1208 74.4948 15.1208H71.7455V14.1131H78.3256V12.5458H63.2024V14.1131ZM68.8726 7.31741C69.2869 7.02758 69.9398 6.87486 70.7611 6.87486C71.5849 6.87486 72.2386 7.0273 72.6515 7.31741C73.0479 7.59525 73.2754 8.06149 73.2754 8.59656C73.2754 9.13163 73.0479 9.59702 72.6515 9.87459C72.2378 10.165 71.5849 10.3188 70.7614 10.3188C69.9403 10.3188 69.2874 10.165 68.8726 9.87404C68.4762 9.59731 68.2492 9.13163 68.2492 8.59684C68.2492 8.06149 68.4762 7.59526 68.8726 7.31769M67.2729 10.9835C68.0825 11.6138 69.2557 11.9335 70.7611 11.9335C72.2673 11.9335 73.441 11.6138 74.2523 10.9821C74.9938 10.3893 75.3694 9.58727 75.3694 8.59656C75.3694 7.60751 74.9936 6.80463 74.2506 6.20965C73.441 5.57983 72.2673 5.26018 70.7611 5.26018C69.2557 5.26018 68.0825 5.57983 67.2713 6.21076C66.5317 6.8038 66.1559 7.60696 66.1559 8.59684C66.1559 9.58783 66.5317 10.3899 67.2729 10.9835ZM114.261 19.8213V15.7849H112.254V20.3031C112.254 20.9617 112.686 21.6255 113.652 21.6255H122.541V20.0387H114.49C114.307 20.0387 114.261 20.0175 114.261 19.8213ZM145.748 20.0389C145.565 20.0389 145.518 20.0172 145.518 19.8216V16.7171H143.514V20.3029C143.514 20.9611 143.946 21.6252 144.911 21.6252H154.188V20.0389H145.748ZM114.26 11.2134C114.559 11.8571 115.092 12.5692 115.672 13.0889C116.408 13.7463 117.181 14.1749 117.699 14.4188L117.824 14.4767L118.223 13.9559C118.431 13.6864 118.671 13.3746 118.725 13.3027L118.852 13.1343L118.661 13.046C116.455 12.0221 115.335 10.2923 115.335 7.90515V7.38875H118.095V5.82172H110.425V7.38875H113.186V7.90515C113.186 10.2923 112.067 12.0216 109.86 13.046L109.667 13.1355L110.698 14.4767L110.822 14.4188C111.34 14.1744 112.113 13.7463 112.848 13.0886C113.43 12.5669 113.964 11.8541 114.26 11.2134ZM122.247 5.57983H120.243V16.3099H122.247V5.57983ZM144.691 16.323H146.663V14.0197L148.118 14.0191C149.751 13.9595 150.349 13.8968 151.314 13.6839L151.462 13.651L151.311 12.1726L151.132 12.2033C150.096 12.3805 149.247 12.4705 147.482 12.4705H140.475V14.0331H144.691L144.691 16.323Z" fill="white"/>
<path d="M148.683 16.3476H151.758V17.5821H153.76V5.57986H151.758V14.7895H148.683V16.3476ZM133.799 20.0083C133.357 20.2898 132.66 20.4375 131.782 20.4375C130.903 20.4375 130.206 20.2898 129.763 20.0083C129.344 19.7447 129.104 19.3019 129.104 18.7933C129.104 18.4954 129.189 17.9416 129.764 17.5793C130.206 17.2984 130.903 17.1496 131.782 17.1496C132.658 17.1496 133.356 17.2984 133.799 17.5793C134.372 17.9416 134.458 18.4954 134.458 18.7933C134.458 19.3019 134.218 19.7447 133.799 20.0083ZM135.4 16.4958C134.562 15.8933 133.343 15.5882 131.782 15.5882C130.218 15.5882 129 15.8933 128.159 16.4975C127.386 17.068 126.994 17.8405 126.994 18.7933C126.994 19.7469 127.386 20.5197 128.16 21.0921C129.002 21.6941 130.22 21.9992 131.782 21.9992C133.342 21.9992 134.56 21.6941 135.403 21.0904C136.175 20.5208 136.567 19.748 136.567 18.7933C136.567 17.8393 136.175 17.0663 135.4 16.4958ZM124.221 14.8045H139.342V13.2422H124.221V14.8045ZM130.01 8.17829C130.4 7.90351 130.996 7.76305 131.782 7.76305C132.566 7.76305 133.162 7.90351 133.553 8.17941C134.079 8.54504 134.135 9.13417 134.135 9.37049C134.135 9.60709 134.079 10.1971 133.552 10.5638C133.164 10.8361 132.552 10.9796 131.782 10.9796C131.01 10.9796 130.397 10.8361 130.009 10.5638C129.483 10.1971 129.427 9.60765 129.427 9.37049C129.427 9.13417 129.483 8.54448 130.01 8.17829ZM127.437 9.37049C127.437 10.3032 127.791 11.0607 128.493 11.6211C129.255 12.2158 130.362 12.5171 131.782 12.5171C133.202 12.5171 134.308 12.2153 135.071 11.6197C135.77 11.0613 136.124 10.3049 136.124 9.37077C136.124 8.73621 135.958 8.1794 135.627 7.71121H137.714V6.17652H132.809V4.98153H130.752V6.17652H125.849V7.71121H127.936C127.604 8.18051 127.437 8.73732 127.437 9.37049ZM144.016 7.23913C144.365 6.97243 144.92 6.83114 145.619 6.83114C146.32 6.83114 146.875 6.97243 147.225 7.23969C147.704 7.59947 147.756 8.18581 147.756 8.42158C147.756 8.91791 147.562 9.34903 147.223 9.6043C146.875 9.871 146.32 10.0112 145.619 10.0112C144.92 10.0112 144.366 9.871 144.015 9.60375C143.678 9.34903 143.484 8.91819 143.484 8.42158C143.484 8.18581 143.536 7.59946 144.016 7.23913ZM142.484 10.6697C143.212 11.2652 144.267 11.5676 145.619 11.5676C146.973 11.5676 148.029 11.2652 148.76 10.668C149.425 10.1079 149.762 9.35238 149.762 8.42186C149.762 7.48939 149.424 6.73305 148.758 6.17206C148.029 5.5768 146.973 5.2747 145.619 5.2747C144.267 5.2747 143.212 5.57679 142.483 6.17429C141.816 6.73332 141.478 7.48966 141.478 8.42158C141.478 9.35237 141.816 10.1079 142.484 10.6697ZM89.2036 19.8191C88.8217 20.153 88.1334 20.3837 87.3143 20.3837C86.4947 20.3837 85.8064 20.153 85.4245 19.8191C85.0629 19.5006 84.8733 19.0176 84.8733 18.4839C84.8733 17.9508 85.0629 17.4679 85.4245 17.1491C85.8064 16.8152 86.4947 16.5847 87.3143 16.5847C88.1334 16.5847 88.8217 16.8152 89.2036 17.1493C89.5652 17.4679 89.7548 17.9508 89.7548 18.4839C89.7548 19.0176 89.5652 19.5006 89.2036 19.8191ZM90.6405 16.0215C89.8309 15.3613 88.8189 14.9689 87.3143 14.9689C85.8092 14.9689 84.7972 15.3613 83.9882 16.0215C83.2466 16.6385 82.7788 17.4929 82.7788 18.4839C82.7788 19.4755 83.2469 20.3299 83.9882 20.9469C84.7972 21.6071 85.8092 21.9995 87.3141 21.9995C88.8189 21.9995 89.8309 21.6071 90.6405 20.9469C91.3812 20.3299 91.8493 19.4755 91.8493 18.4839C91.8493 17.4929 91.3812 16.6385 90.6405 16.0215Z" fill="white"/>
<path d="M86.6281 9.31216H89.892V10.7574H86.4363V12.3969H89.892V15.0951H91.8435V5.57977H89.892V7.70472H86.9074L86.9149 7.60635C86.9149 7.02808 86.9963 6.04155 85.8458 6.05437C84.4167 6.06942 79.9456 6.05437 79.9456 6.05437V7.62669H84.816V8.10546C84.6013 10.1563 82.7142 13.0256 79.4893 14.3078L80.2732 15.8525C82.0808 15.1522 85.574 12.9403 86.6281 9.31216Z" fill="white"/>
</g>
</g>
</svg>
