<svg width="70" height="14" viewBox="0 0 70 14" fill="none" xmlns="http://www.w3.org/2000/svg">
<g opacity="0.64">
<path d="M29.1225 0.286922H25.0869C24.1697 0.286922 23.4229 1.03372 23.4229 1.95103V12.0422C23.4229 12.9596 24.1697 13.7071 25.0869 13.7071C26.0043 13.7071 26.7511 12.9604 26.7511 12.0422V9.64H29.1217C31.8436 9.64 33.8946 7.62937 33.8946 4.96347C33.8946 2.29758 31.8428 0.287712 29.1225 0.287712V0.286133V0.286922ZM29.1225 6.48389H26.7519V3.4604H29.1225C29.9601 3.4604 30.5663 4.09273 30.5663 4.96347C30.5663 5.8342 29.9451 6.48547 29.1225 6.48547V6.48389Z" fill="white"/>
<path d="M62.8581 0C59.2007 0 56.2349 3.13401 56.2349 6.99981C56.2349 10.8656 59.2007 13.9996 62.8581 13.9996C66.5156 13.9996 69.4814 10.8656 69.4814 6.99981C69.4814 3.13401 66.5156 0 62.8581 0ZM64.9249 10.9714V10.9698C64.748 11.0638 64.5562 11.1277 64.3525 11.1569C63.0721 11.3416 61.494 10.1938 60.5159 8.36867C59.9562 7.32503 59.676 6.2246 59.7273 5.27098C59.7778 4.31262 60.1559 3.5974 60.7915 3.25795C60.9683 3.16401 61.1601 3.10007 61.3638 3.07086C62.6442 2.88613 64.2207 4.03396 65.2004 5.8591C66.36 8.02213 66.2385 10.2673 64.9257 10.9706L64.9249 10.9714Z" fill="white"/>
<path d="M5.32839 10.579L10.4344 3.36289C10.638 3.0408 10.7462 2.67057 10.7462 2.29007C10.7462 1.18645 9.84786 0.288087 8.74423 0.288087H2.27095C1.40811 0.287297 0.709473 0.986725 0.709473 1.84957C0.709473 2.71241 1.40811 3.41104 2.27095 3.41104H6.09887L1.02129 10.6311C0.817624 10.9532 0.709473 11.3234 0.709473 11.7039C0.709473 12.8076 1.60784 13.7059 2.71145 13.7059H9.33311C10.2189 13.7059 10.9389 12.986 10.9389 12.1002C10.9389 11.2145 10.2189 10.5798 9.33311 10.5798H5.32839V10.579Z" fill="white"/>
<path d="M20.1861 10.5842H16.0353V8.58847H19.5143C20.2959 8.58847 20.9842 8.03748 21.1176 7.26776C21.2857 6.30549 20.5453 5.46554 19.6122 5.46554H16.0353V3.41304H20.1277C20.9597 3.41304 21.6726 2.78071 21.731 1.94945C21.7957 1.0424 21.0797 0.286133 20.1877 0.286133H14.0602C13.2163 0.286133 12.5303 0.972144 12.5303 1.81446V12.178C12.5303 13.0227 13.2147 13.7063 14.0586 13.7063H20.1845C21.041 13.7063 21.7342 13.0125 21.7342 12.1567C21.7342 11.3009 21.0402 10.5842 20.1845 10.5842H20.1861Z" fill="white"/>
<path d="M43.0593 10.5842H38.9085V8.58847H42.3875C43.169 8.58847 43.8574 8.03748 43.9908 7.26776C44.159 6.30549 43.4185 5.46554 42.4854 5.46554H38.9085V3.41304H43.0009C43.833 3.41304 44.5458 2.78071 44.6042 1.94945C44.669 1.0424 43.9529 0.286133 43.0609 0.286133H36.9342C36.0903 0.286133 35.4043 0.972144 35.4043 1.81446V12.178C35.4043 13.0227 36.0887 13.7063 36.9326 13.7063H43.0585C43.9151 13.7063 44.6081 13.0125 44.6081 12.1567C44.6081 11.3009 43.9143 10.5842 43.0585 10.5842H43.0601H43.0593Z" fill="white"/>
<path d="M54.6876 0.286922H47.1099C46.255 0.286922 45.561 0.980827 45.561 1.83577C45.561 2.69071 46.255 3.41146 47.1099 3.41146H49.1711V11.9807C49.1711 12.9351 49.9448 13.7071 50.8975 13.7071C51.8504 13.7071 52.6241 12.9335 52.6241 11.9807V3.41067H54.6852C55.5402 3.41067 56.234 2.69071 56.234 1.83498C56.234 0.979249 55.5402 0.286133 54.6852 0.286133H54.6868L54.6876 0.286922Z" fill="white"/>
</g>
</svg>
