<svg width="24" height="24" viewBox="0 0 24 24" fill="none" xmlns="http://www.w3.org/2000/svg">
<path d="M13.602 3.85071L21.0684 11.1275C21.1684 11.2258 21.2478 11.343 21.302 11.4723C21.3562 11.6016 21.3841 11.7403 21.3841 11.8805C21.3841 12.0207 21.3562 12.1595 21.302 12.2887C21.2478 12.418 21.1684 12.5352 21.0684 12.6335L13.602 19.9091C13.5061 20.0031 13.3923 20.0769 13.2674 20.1262C13.1425 20.1755 13.0089 20.1992 12.8747 20.1959C12.7404 20.1927 12.6082 20.1626 12.4858 20.1073C12.3634 20.0521 12.2533 19.9728 12.162 19.8743C11.9751 19.6731 11.8741 19.4068 11.8806 19.1322C11.8871 18.8576 12.0006 18.5965 12.1968 18.4043L17.8272 12.9203H3.39483C3.11906 12.9203 2.85458 12.8108 2.65958 12.6158C2.46458 12.4208 2.35503 12.1563 2.35503 11.8805C2.35503 11.6047 2.46458 11.3403 2.65958 11.1453C2.85458 10.9503 3.11906 10.8407 3.39483 10.8407H17.8236L12.1932 5.35671C11.9976 5.1637 11.8847 4.90225 11.8782 4.62754C11.8717 4.35283 11.9722 4.08634 12.1584 3.88431C12.25 3.7856 12.3604 3.70626 12.4832 3.65098C12.6059 3.59571 12.7385 3.56561 12.8731 3.56248C13.0077 3.55935 13.1416 3.58324 13.2668 3.63275C13.392 3.68225 13.506 3.75637 13.602 3.85071Z" fill="white"/>
</svg>
