<svg width="30" height="38" viewBox="0 0 30 38" fill="none" xmlns="http://www.w3.org/2000/svg">
<rect x="9.45898" y="12.5156" width="11.7348" height="12.6613" fill="white"/>
<path fill-rule="evenodd" clip-rule="evenodd" d="M1.36036 19.1458C-0.462555 15.9896 0.618354 11.9538 3.77547 10.1316L18.7619 1.47896C21.919 -0.343294 25.9537 0.738061 27.7766 3.89428C29.5978 7.0505 28.5169 11.0863 25.3615 12.9085L21.9962 15.1712C21.905 15.2325 21.9674 15.3862 22.0764 15.3719C24.6418 15.0367 27.274 16.2369 28.6489 18.6172C30.47 21.7734 29.3891 25.8092 26.2338 27.6315L11.2473 36.2841C8.09018 38.1063 4.05372 37.025 2.23258 33.8688C0.409664 30.7126 1.49057 26.6768 4.64768 24.8545L7.58334 22.6215C7.66455 22.5598 7.61134 22.4257 7.50952 22.4323C5.08147 22.5909 2.65845 21.3954 1.36036 19.1458ZM19.8539 19.4734C20.0974 19.3328 20.0974 18.9813 19.8539 18.8407L11.8721 14.2324C11.6285 14.0918 11.3241 14.2676 11.3241 14.5488V23.7654C11.3241 24.0466 11.6285 24.2223 11.8721 24.0817L19.8539 19.4734Z" fill="url(#paint0_linear_1151_892)"/>
<defs>
<linearGradient id="paint0_linear_1151_892" x1="15.004" y1="0.59375" x2="15.004" y2="37.1693" gradientUnits="userSpaceOnUse">
<stop stop-color="#FF0000"/>
<stop offset="1" stop-color="#CD0000"/>
</linearGradient>
</defs>
</svg>
