<svg xmlns="http://www.w3.org/2000/svg" width="39.925" height="48.09" viewBox="0 0 39.925 48.09">
  <g id="customer" transform="translate(-268.963 -158.775)">
    <path id="패스_2027" data-name="패스 2027" d="M307.085,200.867h-1.66a2.635,2.635,0,0,1-2.632-2.633V181.527a2.636,2.636,0,0,1,2.632-2.633h1.66a4.3,4.3,0,0,1,4.293,4.293v13.386A4.3,4.3,0,0,1,307.085,200.867Zm-1.66-20.029a.689.689,0,0,0-.688.688v16.707a.689.689,0,0,0,.688.688h1.66a2.351,2.351,0,0,0,2.348-2.349V183.187a2.352,2.352,0,0,0-2.348-2.349h-1.66Z" transform="translate(-2.49 -1.481)" fill="#fff"/>
    <path id="패스_2028" data-name="패스 2028" d="M303.531,199.314a3.916,3.916,0,0,1-3.912-3.912V184.626a3.917,3.917,0,0,1,3.912-3.912.972.972,0,0,1,.972.972v16.656A.972.972,0,0,1,303.531,199.314Zm-.973-16.4a1.97,1.97,0,0,0-1,1.711V195.4a1.97,1.97,0,0,0,1,1.711Z" transform="translate(-2.257 -1.615)" fill="#fff"/>
    <path id="패스_2029" data-name="패스 2029" d="M274.916,200.867h-1.66a4.3,4.3,0,0,1-4.293-4.293V183.188a4.3,4.3,0,0,1,4.293-4.293h1.66a2.636,2.636,0,0,1,2.633,2.633v16.707A2.636,2.636,0,0,1,274.916,200.867Zm-1.661-20.029a2.351,2.351,0,0,0-2.348,2.349v13.386a2.352,2.352,0,0,0,2.348,2.349h1.66a.689.689,0,0,0,.688-.688V181.528a.689.689,0,0,0-.688-.688h-1.66Z" transform="translate(0 -1.481)" fill="#fff"/>
    <path id="패스_2030" data-name="패스 2030" d="M277.1,199.314a.972.972,0,0,1-.972-.972V181.687a.972.972,0,0,1,.972-.972,3.916,3.916,0,0,1,3.912,3.912V195.4A3.916,3.916,0,0,1,277.1,199.314Zm.972-16.4v14.2a1.969,1.969,0,0,0,1-1.711V184.627A1.969,1.969,0,0,0,278.076,182.916Z" transform="translate(-0.528 -1.615)" fill="#fff"/>
    <path id="패스_2031" data-name="패스 2031" d="M306.352,180.165a.972.972,0,0,1-.972-.972v-1.5a13.932,13.932,0,0,0-1.625-6.528.972.972,0,1,1,1.715-.914,15.876,15.876,0,0,1,1.854,7.443v1.5A.971.971,0,0,1,306.352,180.165Z" transform="translate(-2.553 -0.807)" fill="#fff"/>
    <path id="패스_2032" data-name="패스 2032" d="M274.378,180.165a.972.972,0,0,1-.972-.972v-1.5a15.877,15.877,0,0,1,1.85-7.436.972.972,0,0,1,1.716.913,13.918,13.918,0,0,0-1.622,6.523v1.5A.972.972,0,0,1,274.378,180.165Z" transform="translate(-0.327 -0.808)" fill="#fff"/>
    <path id="패스_2033" data-name="패스 2033" d="M277.379,171.238a3.212,3.212,0,0,1-1.936-.644,3.245,3.245,0,0,1-.658-4.535,18.117,18.117,0,0,1,29.036-.009,3.239,3.239,0,1,1-5.189,3.88,11.637,11.637,0,0,0-18.655.006A3.254,3.254,0,0,1,277.379,171.238Zm11.927-10.518a16.252,16.252,0,0,0-12.963,6.5,1.3,1.3,0,0,0,.263,1.814,1.324,1.324,0,0,0,1.813-.263,13.581,13.581,0,0,1,21.769-.006,1.3,1.3,0,0,0,2.076-1.552A16.259,16.259,0,0,0,289.306,160.719Z" transform="translate(-0.381 0)" fill="#fff"/>
    <path id="패스_2034" data-name="패스 2034" d="M301.436,209.23h-6.745a.972.972,0,1,1,0-1.944h6.745a3.148,3.148,0,0,0,3.144-3.144v-2.655a.972.972,0,1,1,1.944,0v2.655A5.093,5.093,0,0,1,301.436,209.23Z" transform="translate(-1.822 -3.073)" fill="#fff"/>
    <path id="패스_2035" data-name="패스 2035" d="M292.927,210.257h-5.934a2.089,2.089,0,0,1-2.086-2.087v-.679a2.636,2.636,0,0,1,2.632-2.633h4.843a2.636,2.636,0,0,1,2.633,2.633v.679A2.091,2.091,0,0,1,292.927,210.257Zm-5.388-3.455a.689.689,0,0,0-.688.688v.679a.143.143,0,0,0,.143.143h5.934a.143.143,0,0,0,.143-.143v-.679a.689.689,0,0,0-.688-.688Z" transform="translate(-1.174 -3.392)" fill="#fff"/>
    <path id="패스_2036" data-name="패스 2036" d="M273.519,201.329a.972.972,0,0,1-.972-.972V186.144a.972.972,0,0,1,1.944,0v14.214A.971.971,0,0,1,273.519,201.329Z" transform="translate(-0.264 -1.943)" fill="#fff"/>
    <path id="패스_2037" data-name="패스 2037" d="M307.349,201.329a.972.972,0,0,1-.972-.972V186.144a.972.972,0,0,1,1.944,0v14.214A.972.972,0,0,1,307.349,201.329Z" transform="translate(-2.754 -1.943)" fill="#fff"/>
  </g>
</svg>
