<svg width="21" height="21" viewBox="0 0 21 21" fill="none" xmlns="http://www.w3.org/2000/svg">
<g opacity="0.9">
<path d="M15.1381 9.01706L10.9666 12.8346C10.9106 12.897 10.8414 12.9469 10.7638 12.981C10.6861 13.0151 10.6018 13.0325 10.5166 13.0321C10.3492 13.0314 10.1883 12.9689 10.0666 12.8572L5.89513 9.0178C5.83088 8.96031 5.77902 8.891 5.74257 8.81387C5.70611 8.73674 5.68578 8.65334 5.68277 8.56851C5.67975 8.48369 5.6941 8.39913 5.72499 8.31974C5.75588 8.24035 5.80269 8.16772 5.8627 8.10606C5.92272 8.0444 5.99474 7.99494 6.07458 7.96056C6.15442 7.92618 6.2405 7.90756 6.3278 7.90578C6.41511 7.904 6.50192 7.9191 6.58317 7.95019C6.66443 7.98129 6.73851 8.02777 6.80113 8.08693L10.5204 11.513L14.2396 8.08693C14.3024 8.02897 14.3763 7.98363 14.4571 7.9535C14.538 7.92337 14.6241 7.90905 14.7107 7.91135C14.7972 7.91366 14.8824 7.93254 14.9615 7.96692C15.0405 8.00131 15.1117 8.05051 15.1711 8.11172C15.2888 8.23674 15.3512 8.40164 15.345 8.57095C15.3389 8.74026 15.2646 8.90044 15.1381 9.01706Z" fill="white"/>
</g>
</svg>
