<svg width="15" height="15" viewBox="0 0 15 15" fill="none" xmlns="http://www.w3.org/2000/svg">
<path d="M7.5 0C6.46582 0 5.625 0.84082 5.625 1.875V3.75H1.875C0.84082 3.75 0 4.59082 0 5.625V13.125C0 14.1592 0.84082 15 1.875 15H7.5H13.125C14.1592 15 15 14.1592 15 13.125V5.625V1.875C15 0.84082 14.1592 0 13.125 0H7.5ZM1.875 8.90625C1.875 8.64844 2.08594 8.4375 2.34375 8.4375H3.28125C3.53906 8.4375 3.75 8.64844 3.75 8.90625V9.84375C3.75 10.1016 3.53906 10.3125 3.28125 10.3125H2.34375C2.08594 10.3125 1.875 10.1016 1.875 9.84375V8.90625ZM7.96875 9.375C7.71094 9.375 7.5 9.16406 7.5 8.90625V7.96875C7.5 7.71094 7.71094 7.5 7.96875 7.5H8.90625C9.16406 7.5 9.375 7.71094 9.375 7.96875V8.90625C9.375 9.16406 9.16406 9.375 8.90625 9.375H7.96875ZM11.25 8.90625V7.96875C11.25 7.71094 11.4609 7.5 11.7187 7.5H12.6562C12.9141 7.5 13.125 7.71094 13.125 7.96875V8.90625C13.125 9.16406 12.9141 9.375 12.6562 9.375H11.7187C11.4609 9.375 11.25 9.16406 11.25 8.90625ZM2.34375 5.625H3.28125C3.53906 5.625 3.75 5.83594 3.75 6.09375V7.03125C3.75 7.28906 3.53906 7.5 3.28125 7.5H2.34375C2.08594 7.5 1.875 7.28906 1.875 7.03125V6.09375C1.875 5.83594 2.08594 5.625 2.34375 5.625ZM7.5 2.34375C7.5 2.08594 7.71094 1.875 7.96875 1.875H8.90625C9.16406 1.875 9.375 2.08594 9.375 2.34375V3.28125C9.375 3.53906 9.16406 3.75 8.90625 3.75H7.96875C7.71094 3.75 7.5 3.53906 7.5 3.28125V2.34375ZM11.7187 1.875H12.6562C12.9141 1.875 13.125 2.08594 13.125 2.34375V3.28125C13.125 3.53906 12.9141 3.75 12.6562 3.75H11.7187C11.4609 3.75 11.25 3.53906 11.25 3.28125V2.34375C11.25 2.08594 11.4609 1.875 11.7187 1.875ZM7.5 6.09375V5.15625C7.5 4.89844 7.71094 4.6875 7.96875 4.6875H8.90625C9.16406 4.6875 9.375 4.89844 9.375 5.15625V6.09375C9.375 6.35156 9.16406 6.5625 8.90625 6.5625H7.96875C7.71094 6.5625 7.5 6.35156 7.5 6.09375ZM11.7187 6.5625C11.4609 6.5625 11.25 6.35156 11.25 6.09375V5.15625C11.25 4.89844 11.4609 4.6875 11.7187 4.6875H12.6562C12.9141 4.6875 13.125 4.89844 13.125 5.15625V6.09375C13.125 6.35156 12.9141 6.5625 12.6562 6.5625H11.7187Z" fill="white"/>
</svg>
