<svg id="레이어_1" data-name="레이어 1" xmlns="http://www.w3.org/2000/svg" viewBox="0 0 229.8 326.5">
  <defs><style>.cls-1{fill:#50c121;stroke:#4B604B;stroke-miterlimit:10;stroke-width:4px;}</style></defs><path class="cls-1" d="M208.79,89.29c-12.29,12.94-36.85,42.09-39.56,70.7a4.14,4.14,0,0,1-7.45,2.13h0a4.05,4.05,0,0,0-7.26,1.63c-5.4,28.38-18.08,117.34,26.91,152.08,2.51,1.95.44,4.21-1.11,7-1.81,3.25-12,3.6-14.64-1.56a.1.1,0,0,0-.19.06c2.74,11.48,24.29,81.62,138,49.49a4.15,4.15,0,0,0,1.08-7.49c-11.86-7.56-34.26-23.38-47.68-42.48-2.9-4.13,2.71-8.9,6.31-5.36,13.66,13.45,34.14,31.29,55.37,41.41a3.87,3.87,0,0,1,.93.62c3.88,3.51,32.62,30.11,36.5,52.05a4.14,4.14,0,0,0,5.27,3.26L374,409a4.13,4.13,0,0,0,2.59-5.61c-4.5-10.4-18.15-37.92-46-63.48a4.11,4.11,0,0,1-.66-5.36c5.7-8.2,19.59-34.21,4.15-77.06a4.15,4.15,0,0,0-7.6-.44c-.21.43-.44.87-.69,1.31a4.15,4.15,0,0,1-7.78-1.75c-.78-14.69-8.43-41.36-45.21-75.31-48.49-44.76-55.83-70.53-57-89.4A4.13,4.13,0,0,0,208.79,89.29Z" transform="translate(-147.93 -87.25)"/><path class="cls-1" d="M202.24,166.22s13.66,116.49,48.39,133" transform="translate(-147.93 -87.25)"/><path class="cls-1" d="M255.9,233.27s-23,17.66-25.35,42.56" transform="translate(-147.93 -87.25)"/></svg>