<svg xmlns="http://www.w3.org/2000/svg" width="16" height="16" viewBox="0 0 16 16">
  <path id="globe-solid_2_" data-name="globe-solid (2)" d="M11,8a19.541,19.541,0,0,1-.1,2H5.1A18.689,18.689,0,0,1,5,8a19.54,19.54,0,0,1,.1-2H10.9A18.689,18.689,0,0,1,11,8Zm.9-2h3.847a8.028,8.028,0,0,1,0,4H11.9A19.744,19.744,0,0,0,12,8,19.744,19.744,0,0,0,11.9,6Zm3.519-1H11.772A10.992,10.992,0,0,0,10.044.262,8.016,8.016,0,0,1,15.416,5ZM10.759,5H5.241a12.6,12.6,0,0,1,.844-2.959A5.1,5.1,0,0,1,7.131.431,1.291,1.291,0,0,1,8,0a1.291,1.291,0,0,1,.869.431A5.1,5.1,0,0,1,9.916,2.041,12.219,12.219,0,0,1,10.759,5ZM4.228,5H.581A8.021,8.021,0,0,1,5.956.262,10.992,10.992,0,0,0,4.228,5ZM.253,6H4.1a20.05,20.05,0,0,0,0,4H.253a8.028,8.028,0,0,1,0-4Zm5.831,7.956A12.377,12.377,0,0,1,5.241,11h5.519a12.523,12.523,0,0,1-.844,2.956,5.1,5.1,0,0,1-1.047,1.609A1.284,1.284,0,0,1,8,16a1.291,1.291,0,0,1-.869-.431,5.1,5.1,0,0,1-1.047-1.609ZM4.228,11a10.992,10.992,0,0,0,1.728,4.738A8.021,8.021,0,0,1,.581,11Zm11.191,0a8.022,8.022,0,0,1-5.372,4.738A11.032,11.032,0,0,0,11.775,11h3.644Z" fill="#fff"/>
</svg>
