<svg xmlns="http://www.w3.org/2000/svg" width="26.005" height="35.217" viewBox="0 0 26.005 35.217">
  <g id="그룹_1876" data-name="그룹 1876" transform="translate(-1496.847 -30)" opacity="0.8">
    <path id="패스_2538" data-name="패스 2538" d="M8.348-5.428h1.7v.705h-1.7V.9h-.8V-9.336h.8ZM.744-2.091q.862-.493,1.478-.885a11.115,11.115,0,0,0,1.036-.733,5.213,5.213,0,0,0,.677-.644,2.475,2.475,0,0,0,.392-.61,2.4,2.4,0,0,0,.179-.655,5.974,5.974,0,0,0,.045-.761V-7.645H.856v-.717H5.324v1.993a5.567,5.567,0,0,1-.14,1.327,2.791,2.791,0,0,1-.577,1.1A6.45,6.45,0,0,1,3.348-2.83q-.823.582-2.189,1.377Zm10.3-1.915q.9-.381,1.534-.677a11.907,11.907,0,0,0,1.069-.554,3.864,3.864,0,0,0,.683-.5,1.829,1.829,0,0,0,.381-.5,1.642,1.642,0,0,0,.162-.554,5.968,5.968,0,0,0,.034-.666v-.571H11.394V-8.72h4.289v1.333a5.251,5.251,0,0,1-.062.845,2.2,2.2,0,0,1-.23.689,2.285,2.285,0,0,1-.47.594,4.732,4.732,0,0,1-.778.566q-.476.286-1.165.61t-1.618.717Zm7.3-3.729v-1.6h.773v5.969h-.773V-4.924H16.142v-.683h2.206V-7.052H16.31v-.683ZM12.536-2.763H19.12V.978h-.773V-2.068H12.536Z" transform="translate(1499.475 64.239)" fill="#fff"/>
    <path id="패스_2537" data-name="패스 2537" d="M62.873,185.81l-4.639-5.418a1.825,1.825,0,0,0-1.386-.638H43.77a1.825,1.825,0,0,0-1.386.638l-4.639,5.418a1.825,1.825,0,0,0,.005,2.38l11.178,12.935a1.825,1.825,0,0,0,2.762,0l11.178-12.935A1.824,1.824,0,0,0,62.873,185.81Zm-16.557,5.112a.205.205,0,0,1-.391,0c-.869-2.662-1.727-3.52-4.39-4.389a.205.205,0,0,1,0-.391c2.662-.869,3.522-1.727,4.39-4.389a.205.205,0,0,1,.391,0c.869,2.662,1.727,3.52,4.39,4.389a.205.205,0,0,1,0,.391C48.043,187.4,47.185,188.26,46.316,190.922Zm8.512.653A2.687,2.687,0,0,0,52.7,193.7a.1.1,0,0,1-.19,0,2.688,2.688,0,0,0-2.129-2.13.1.1,0,0,1,0-.19,2.687,2.687,0,0,0,2.129-2.13.1.1,0,0,1,.19,0,2.688,2.688,0,0,0,2.129,2.13A.1.1,0,0,1,54.828,191.575Z" transform="translate(1459.541 -149.754)" fill="#fff"/>
  </g>
</svg>
