<svg xmlns="http://www.w3.org/2000/svg" width="42.6" height="35.503" viewBox="0 0 42.6 35.503">
  <g id="my_mewpot" transform="translate(-0.7 -0.297)">
    <g id="user2" transform="translate(1357.371 15)">
      <path id="패스_66" d="M-1335.4-2.3c-6.6,0-10.2,3.1-10.2,8.8a.789.789,0,0,0,.8.8h18.8a.789.789,0,0,0,.8-.8h0C-1325.2.8-1328.8-2.3-1335.4-2.3Z" fill="#cfcfd5"/>
      <path id="패스_67" d="M-1335.4-3.5a5.553,5.553,0,0,0,5.3-5.7,5.339,5.339,0,0,0-5.1-5.5,5.339,5.339,0,0,0-5.5,5.1v.4A5.553,5.553,0,0,0-1335.4-3.5Z" fill="#cfcfd5"/>
    </g>
    <g id="그룹_1260" data-name="그룹 1260">
      <path id="패스_2027" data-name="패스 2027" d="M.7,32.7V26.2h5v6.5Zm4.1-5.8H1.5V32H4.8Zm3.4,3.3v5.6H7.4V25.2h.8v4.2H10v.7H8.2Z" fill="#cfcfd5"/>
      <path id="패스_2028" data-name="패스 2028" d="M14.4,33.1a2.166,2.166,0,0,1-1.9-1,4.023,4.023,0,0,1-.7-2.6,4.023,4.023,0,0,1,.7-2.6,2.417,2.417,0,0,1,1.9-1,2.334,2.334,0,0,1,2,1,4.023,4.023,0,0,1,.7,2.6,4.023,4.023,0,0,1-.7,2.6A2.334,2.334,0,0,1,14.4,33.1Zm0-6.5a1.723,1.723,0,0,0-1.4.8,3.282,3.282,0,0,0-.5,2.1,4.342,4.342,0,0,0,.5,2.1,1.723,1.723,0,0,0,1.4.8,1.873,1.873,0,0,0,1.4-.8,3.282,3.282,0,0,0,.5-2.1,4.064,4.064,0,0,0-.5-2.1A1.6,1.6,0,0,0,14.4,26.6Zm4.7,9.1V25.2h.8V35.7Z" fill="#cfcfd5"/>
      <path id="패스_2029" data-name="패스 2029" d="M24.9,35.7V31.8H22.3v-.7h9.8v.7H29.5v3.9h-.8V31.8H25.8v3.9Zm-1-6V25.6h6.6v4.1Zm5.8-3.4h-5V29h5Z" fill="#cfcfd5"/>
      <path id="패스_2030" data-name="패스 2030" d="M40.1,30.6a5.384,5.384,0,0,1-.8.1c-.5,0-.8.1-1.1.1H33.5V30H35l-.1-3h.8l.1,3h1.9l.1-3h.8l-.1,3a7.589,7.589,0,0,0,1.6-.1Zm-6.2-4.1v-.7h5.7v.7Zm8.2,9a7.169,7.169,0,0,1-2.2-1A5.3,5.3,0,0,1,38.4,33a5.3,5.3,0,0,1-1.5,1.5,4.789,4.789,0,0,1-2.1.9l-.5-.7a4.707,4.707,0,0,0,2.6-1.1A2.731,2.731,0,0,0,38,31.7v-.2h.8v.2a2.936,2.936,0,0,0,1.1,1.9,4.823,4.823,0,0,0,2.6,1.2ZM41.7,29v3.2h-.8v-7h.8v3.1h1.6V29Z" fill="#cfcfd5"/>
    </g>
  </g>
</svg>
