<svg xmlns="http://www.w3.org/2000/svg" width="32" height="32" viewBox="0 0 32 32">
  <g id="그룹_1983" data-name="그룹 1983" transform="translate(-1057 -401)">
    <g id="타원_52" data-name="타원 52" transform="translate(1057 401)" fill="#4747ff" stroke="#4747ff" stroke-width="2">
      <circle cx="16" cy="16" r="16" stroke="none"/>
      <circle cx="16" cy="16" r="15" fill="none"/>
    </g>
    <g id="Layer_2" transform="translate(-359.525 -1019.408)">
      <path id="패스_1059" d="M1436.25,1431.68a3.877,3.877,0,0,0-2.641-.872h-4.444a.288.288,0,0,0-.288.288v11.119a.288.288,0,0,0,.288.288h2.149a.288.288,0,0,0,.288-.288v-4.2h1.866a4.243,4.243,0,0,0,2.78-.825,3.49,3.49,0,0,0,1.012-2.812A3.414,3.414,0,0,0,1436.25,1431.68Zm-4.64,1.5h1.661a1.483,1.483,0,0,1,.966.277,1.17,1.17,0,0,1,.308.93,1.26,1.26,0,0,1-.316.966,1.386,1.386,0,0,1-.957.3h-1.661Z" fill="#fff"/>
    </g>
  </g>
</svg>
