<svg xmlns="http://www.w3.org/2000/svg" width="15.75" height="10.5" viewBox="0 0 15.75 10.5">
  <path id="ticket-light" d="M3.5,67.5a.874.874,0,0,1,.875-.875h7a.874.874,0,0,1,.875.875V71a.874.874,0,0,1-.875.875h-7A.874.874,0,0,1,3.5,71ZM4.375,71h7V67.5h-7ZM15.75,65.75v2.188a1.313,1.313,0,1,0,0,2.625V72.75A1.752,1.752,0,0,1,14,74.5H1.75A1.751,1.751,0,0,1,0,72.75V70.563A1.313,1.313,0,0,0,1.313,69.25,1.313,1.313,0,0,0,0,67.938V65.75A1.75,1.75,0,0,1,1.75,64H14A1.751,1.751,0,0,1,15.75,65.75ZM.875,67.246a2.185,2.185,0,0,1,1.313,2,2.212,2.212,0,0,1-1.313,2v1.5a.875.875,0,0,0,.875.875H14a.874.874,0,0,0,.875-.875v-1.5a2.21,2.21,0,0,1-1.312-2,2.183,2.183,0,0,1,1.313-2v-1.5A.874.874,0,0,0,14,64.875H1.75a.875.875,0,0,0-.875.875Z" transform="translate(0 -64)" fill="#fff"/>
</svg>
