<svg width="20" height="20" viewBox="0 0 20 20" fill="none" xmlns="http://www.w3.org/2000/svg">
<path d="M9.99998 9.45054C11.0492 9.45054 12.0554 9.03374 12.7973 8.29184C13.5392 7.54994 13.956 6.5437 13.956 5.4945C13.956 4.44529 13.5392 3.43905 12.7973 2.69715C12.0554 1.95525 11.0492 1.53845 9.99998 1.53845C8.95077 1.53845 7.94454 1.95525 7.20264 2.69715C6.46073 3.43905 6.04394 4.44529 6.04394 5.4945C6.04394 6.5437 6.46073 7.54994 7.20264 8.29184C7.94454 9.03374 8.95077 9.45054 9.99998 9.45054ZM8.58755 10.9341C5.54325 10.9341 3.0769 13.4004 3.0769 16.4447C3.0769 16.9516 3.48796 17.3626 3.99483 17.3626H16.0051C16.512 17.3626 16.9231 16.9516 16.9231 16.4447C16.9231 13.4004 14.4567 10.9341 11.4124 10.9341H8.58755Z" fill="white"/>
</svg>
