<svg width="18" height="18" viewBox="0 0 18 18" fill="none" xmlns="http://www.w3.org/2000/svg">
<path d="M12.9757 7.72902L9.40009 11.0011C9.35208 11.0546 9.29278 11.0975 9.22622 11.1267C9.15966 11.1559 9.08741 11.1708 9.01438 11.1705C8.87088 11.1699 8.73298 11.1163 8.62867 11.0205L5.05309 7.72964C4.99802 7.68037 4.95357 7.62096 4.92232 7.55485C4.89107 7.48874 4.87365 7.41725 4.87106 7.34454C4.86848 7.27184 4.88078 7.19936 4.90726 7.13131C4.93374 7.06326 4.97386 7.00101 5.0253 6.94815C5.07674 6.8953 5.13847 6.85291 5.2069 6.82344C5.27534 6.79397 5.34912 6.77801 5.42395 6.77649C5.49879 6.77496 5.57319 6.7879 5.64284 6.81456C5.71249 6.84121 5.77599 6.88105 5.82966 6.93176L9.01759 9.86837L12.2055 6.93176C12.2593 6.88208 12.3227 6.84321 12.392 6.81739C12.4612 6.79156 12.5351 6.77929 12.6093 6.78126C12.6835 6.78324 12.7565 6.79942 12.8242 6.8289C12.892 6.85837 12.953 6.90054 13.004 6.95301C13.1048 7.06017 13.1583 7.20151 13.153 7.34663C13.1477 7.49175 13.084 7.62906 12.9757 7.72902Z" fill="white"/>
</svg>
