<svg width="20" height="20" viewBox="0 0 20 20" fill="none" xmlns="http://www.w3.org/2000/svg">
<g clip-path="url(#clip0_3035_8)">
<path d="M15.2 14.8001H4.8C4.58 14.8001 4.4 14.9801 4.4 15.2001V16.0001C4.4 16.2201 4.58 16.4001 4.8 16.4001H15.2C15.42 16.4001 15.6 16.2201 15.6 16.0001V15.2001C15.6 14.9801 15.42 14.8001 15.2 14.8001ZM16.8 6.8001C16.1375 6.8001 15.6 7.3376 15.6 8.0001C15.6 8.1776 15.64 8.3426 15.71 8.4951L13.9 9.5801C13.515 9.8101 13.0175 9.6801 12.795 9.2901L10.7575 5.7251C11.025 5.5051 11.2 5.1751 11.2 4.8001C11.2 4.1376 10.6625 3.6001 10 3.6001C9.3375 3.6001 8.8 4.1376 8.8 4.8001C8.8 5.1751 8.975 5.5051 9.2425 5.7251L7.205 9.2901C6.9825 9.6801 6.4825 9.8101 6.1 9.5801L4.2925 8.4951C4.36 8.3451 4.4025 8.1776 4.4025 8.0001C4.4025 7.3376 3.865 6.8001 3.2025 6.8001C2.54 6.8001 2 7.3376 2 8.0001C2 8.6626 2.5375 9.2001 3.2 9.2001C3.265 9.2001 3.33 9.1901 3.3925 9.1801L5.2 14.0001H14.8L16.6075 9.1801C16.67 9.1901 16.735 9.2001 16.8 9.2001C17.4625 9.2001 18 8.6626 18 8.0001C18 7.3376 17.4625 6.8001 16.8 6.8001Z" fill="white"/>
</g>
<defs>
<clipPath id="clip0_3035_8">
<rect width="16" height="12.8" fill="white" transform="translate(2 3.6001)"/>
</clipPath>
</defs>
</svg>
